<svg xmlns="http://www.w3.org/2000/svg" viewBox="0 0 400 300" fill="none">
  <defs>
    <linearGradient id="bg" x1="0" y1="0" x2="1" y2="1">
      <stop offset="0%" stop-color="#f5f0ff"/>
      <stop offset="100%" stop-color="#ede5ff"/>
    </linearGradient>
    <linearGradient id="screen" x1="0" y1="0" x2="0" y2="1">
      <stop offset="0%" stop-color="#1e1b4b"/>
      <stop offset="100%" stop-color="#312e81"/>
    </linearGradient>
  </defs>
  <rect width="400" height="300" rx="16" fill="url(#bg)"/>
  <!-- Lid -->
  <rect x="60" y="30" width="280" height="190" rx="12" fill="url(#screen)" stroke="#c7d2fe" stroke-width="1.5"/>
  <!-- Screen bezel -->
  <rect x="76" y="46" width="248" height="158" rx="4" fill="#1e1b4b"/>
  <!-- Screen content - code/UI lines -->
  <rect x="92" y="62" width="100" height="6" rx="3" fill="#4338ca" opacity="0.6"/>
  <rect x="92" y="78" width="160" height="6" rx="3" fill="#6366f1" opacity="0.5"/>
  <rect x="92" y="94" width="80" height="6" rx="3" fill="#818cf8" opacity="0.4"/>
  <rect x="92" y="118" width="216" height="30" rx="4" fill="#4338ca" opacity="0.15"/>
  <rect x="100" y="126" width="60" height="6" rx="3" fill="#a5b4fc" opacity="0.5"/>
  <rect x="170" y="126" width="40" height="6" rx="3" fill="#a5b4fc" opacity="0.3"/>
  <rect x="92" y="160" width="140" height="6" rx="3" fill="#6366f1" opacity="0.4"/>
  <rect x="92" y="174" width="100" height="6" rx="3" fill="#6366f1" opacity="0.3"/>
  <!-- Keyboard base -->
  <rect x="50" y="220" width="300" height="12" rx="4" fill="#c7d2fe"/>
  <rect x="40" y="232" width="320" height="48" rx="8" fill="#6d28d9"/>
  <!-- Keys row 1 -->
  <rect x="50" y="238" width="18" height="10" rx="2" fill="#7c3aed"/>
  <rect x="74" y="238" width="18" height="10" rx="2" fill="#7c3aed"/>
  <rect x="98" y="238" width="18" height="10" rx="2" fill="#7c3aed"/>
  <rect x="122" y="238" width="18" height="10" rx="2" fill="#7c3aed"/>
  <rect x="146" y="238" width="18" height="10" rx="2" fill="#7c3aed"/>
  <rect x="170" y="238" width="60" height="10" rx="2" fill="#8b5cf6"/>
  <rect x="236" y="238" width="18" height="10" rx="2" fill="#7c3aed"/>
  <rect x="260" y="238" width="18" height="10" rx="2" fill="#7c3aed"/>
  <rect x="284" y="238" width="18" height="10" rx="2" fill="#7c3aed"/>
  <rect x="308" y="238" width="18" height="10" rx="2" fill="#7c3aed"/>
  <rect x="332" y="238" width="18" height="10" rx="2" fill="#7c3aed"/>
  <!-- Keys row 2 -->
  <rect x="50" y="254" width="18" height="10" rx="2" fill="#7c3aed"/>
  <rect x="74" y="254" width="18" height="10" rx="2" fill="#7c3aed"/>
  <rect x="98" y="254" width="18" height="10" rx="2" fill="#7c3aed"/>
  <rect x="122" y="254" width="18" height="10" rx="2" fill="#7c3aed"/>
  <rect x="146" y="254" width="18" height="10" rx="2" fill="#7c3aed"/>
  <rect x="170" y="254" width="18" height="10" rx="2" fill="#7c3aed"/>
  <rect x="194" y="254" width="18" height="10" rx="2" fill="#7c3aed"/>
  <rect x="218" y="254" width="18" height="10" rx="2" fill="#7c3aed"/>
  <rect x="242" y="254" width="100" height="10" rx="2" fill="#8b5cf6"/>
  <!-- Trackpad -->
  <rect x="160" y="268" width="80" height="8" rx="4" fill="#5b21b6"/>
</svg>
