<svg xmlns="http://www.w3.org/2000/svg" viewBox="0 0 400 300" fill="none">
  <rect width="400" height="300" rx="16" fill="#e8f5e9"/>
  <!-- Phone body -->
  <rect x="140" y="30" width="120" height="240" rx="16" fill="#1b1b2f"/>
  <!-- Screen -->
  <rect x="150" y="46" width="100" height="208" rx="4" fill="#16213e"/>
  <!-- Notch -->
  <rect x="180" y="42" width="40" height="8" rx="4" fill="#1b1b2f"/>
  <!-- Screen content -->
  <rect x="162" y="60" width="76" height="12" rx="4" fill="#0f3460"/>
  <rect x="162" y="80" width="60" height="12" rx="4" fill="#0f3460"/>
  <circle cx="200" cy="130" r="24" fill="#0f3460"/>
  <rect x="162" y="168" width="76" height="8" rx="4" fill="#0f3460"/>
  <rect x="162" y="184" width="60" height="8" rx="4" fill="#0f3460"/>
  <rect x="162" y="200" width="76" height="6" rx="3" fill="#0f3460"/>
  <!-- Home bar -->
  <rect x="175" y="240" width="50" height="3" rx="1.5" fill="#333"/>
  <!-- Side buttons -->
  <rect x="134" y="90" width="6" height="20" rx="2" fill="#e8e4ff"/>
  <rect x="134" y="120" width="6" height="40" rx="2" fill="#e8e4ff"/>
  <rect x="260" y="100" width="6" height="50" rx="2" fill="#e8e4ff"/>
</svg>
